<svg version="1.2" xmlns="http://www.w3.org/2000/svg" viewBox="0 0 1524 1524" width="1524" height="1524">
	<title>logo (24)-svg</title>
	<style>
		.s0 { fill: #002744 } 
	</style>
	<path id="Layer" class="s0" d="m1293.4 1523.5l-107.8-129h-0.1l-103.6-123.8-190.8-228.3h210.3l104.3 124.6c201.3-221.3 208.3-557.3 16.7-787-191.6-229.8-523.5-283-777.3-124.7-253.9 158.3-352.2 479.6-230.1 752.9 121.9 273.2 426.7 414.6 714.1 331.3l110.2 131.7c-88.4 34.7-182.6 52.5-277.5 52.3-420.2 0-761.8-341.6-761.8-761.7 0-420.2 341.7-761.8 761.8-761.8 420 0 761.7 341.7 761.7 761.8 0.2 197.5-76.7 387.4-214.2 529.1l194.4 232.6c0 0-210.3 0-210.3 0z"/>
</svg>